<?xml version="1.0" standalone="no"?>
<!DOCTYPE svg PUBLIC "-//W3C//DTD SVG 1.1//EN" "http://www.w3.org/Graphics/SVG/1.1/DTD/svg11.dtd" >
<svg xmlns="http://www.w3.org/2000/svg">
<metadata>Generated by IcoMoon</metadata>
<defs>
<font id="icomoon" horiz-adv-x="512">
<font-face units-per-em="512" ascent="480" descent="-32" />
<missing-glyph horiz-adv-x="512" />
<glyph unicode="&#x20;" d="" horiz-adv-x="256" />
<glyph unicode="&#x66;" d="M494.942 323.414c-13.361 31.067-31.568 58.266-54.625 81.569-23.055 23.307-50.138 41.626-81.204 54.989-31.067 13.361-64.341 20.027-99.777 20.027s-68.71-6.666-99.778-20.027c-31.067-13.361-58.151-31.683-81.204-54.989s-41.267-50.502-54.628-81.569c-13.361-31.067-20.027-64.341-20.027-99.777s6.666-68.71 20.027-99.777c13.361-31.067 31.569-58.151 54.624-81.204s50.138-41.267 81.204-54.628 64.341-20.027 99.777-20.027c35.436 0 68.711 6.67 99.778 20.027s58.151 31.568 81.204 54.625c23.056 23.055 41.264 50.138 54.625 81.204s20.027 64.341 20.027 99.777-6.666 68.711-20.024 99.781zM325.606 300.837h-37.871c-2.434 0-4.621-1.458-6.557-4.37-1.932-2.912-2.912-6.305-2.912-10.197v-24.036h47.339v-47.339h-47.339v-115.073h-47.339v115.073h-37.874v47.339h37.871v23.307c0 17.002 5.577 31.566 16.751 43.699s24.513 18.208 40.057 18.208h37.872v-46.61z" horiz-adv-x="519" />
<glyph unicode="&#x69;" d="M183.534 369.298c-7.761 0-14.316-2.8-19.665-8.375s-8.012-12.268-8.012-20.029c0-7.761 2.663-14.316 8.012-19.665s11.904-8.012 19.665-8.012 14.316 2.663 19.665 8.012 8.012 11.904 8.012 19.665c0 7.761-2.663 14.452-8.012 20.029s-11.904 8.375-19.665 8.375zM227.96 139.88h45.155v100.507c3.391 3.391 7.283 6.077 11.653 8.012 3.391 1.457 7.283 2.435 11.653 2.913s8.74-0.478 13.11-2.913c1.935-0.978 3.755-2.799 5.462-5.463s2.549-5.212 2.549-7.647v-95.409h44.426v95.409c0 10.197-2.8 20.142-8.375 29.861s-12.995 17.229-22.214 22.577c-8.262 4.37-17.844 6.805-28.768 7.283s-20.757-1.457-29.497-5.827v7.283h-45.155c0 0 0-156.586 0-156.586zM206.111 296.466h-45.155v-156.586h45.155v156.586zM255.636-32c-35.436 0-68.711 6.668-99.778 20.029s-58.151 31.682-81.207 54.987c-23.055 23.306-41.263 50.503-54.623 81.57s-20.029 64.341-20.029 99.778 6.668 68.711 20.029 99.778 31.568 58.151 54.623 81.207 50.139 41.263 81.207 54.623 64.341 20.029 99.778 20.029c35.437 0 68.711-6.668 99.778-20.029s58.264-31.567 81.57-54.623c23.306-23.055 41.627-50.139 54.987-81.207s20.028-64.341 20.028-99.778c0-35.437-6.668-68.711-20.029-99.778s-31.682-58.264-54.987-81.57c-23.306-23.306-50.503-41.627-81.57-54.987s-64.341-20.029-99.778-20.029z" />
<glyph unicode="&#x6c;" d="M256.729 480c35.487 0 68.809-6.678 99.92-20.057s58.233-31.612 81.322-54.701 41.322-50.211 54.701-81.322 20.057-64.433 20.057-99.92-6.678-68.809-20.057-99.92-31.613-58.233-54.701-81.322-50.211-41.322-81.322-54.701-64.433-20.057-99.92-20.057-68.809 6.678-99.92 20.057-58.347 31.613-81.686 54.701-41.687 50.211-55.066 81.322-20.057 64.433-20.057 99.92c0 35.487 6.678 68.809 20.057 99.92s31.727 58.233 55.066 81.322 50.576 41.322 81.686 54.701 64.433 20.057 99.92 20.057zM395.305 297.664c-4.854-1.938-9.732-3.533-14.587-4.74s-9.96-2.302-15.316-3.282c5.356 3.396 9.96 7.544 13.858 12.399s7.043 10.211 9.481 16.046c-5.356-2.439-10.826-4.855-16.411-7.293s-11.555-4.125-17.869-5.106c-4.376 5.356-9.732 9.481-16.046 12.399s-13.379 4.376-21.151 4.376c-14.108 0-26.257-5.106-36.467-15.316s-15.316-22.609-15.316-37.196c0-2.917 0.478-6.815 1.459-11.67-21.881 0.98-41.938 6.314-60.171 16.046s-33.915 22.609-47.042 38.655c-4.376-8.274-6.564-17.025-6.564-26.256 0-19.442 7.544-33.801 22.609-43.032-8.752 0-16.524 1.938-23.339 5.835v-0.73c0-12.649 3.898-23.703 11.669-33.185s17.505-15.43 29.174-17.869c-1.938-0.478-4.012-0.844-6.2-1.094s-4.74-0.365-7.658-0.365c-1.938 0-4.855 0.478-8.752 1.459 2.917-10.211 8.752-18.712 17.505-25.527s18.963-10.462 30.632-10.94c-18.484-14.587-39.863-21.88-64.183-21.88h-12.399c11.191-7.293 23.589-13.014 37.197-17.139s27.715-6.2 42.302-6.2c23.817 0 44.968 4.49 63.453 13.493s33.914 20.536 46.313 34.644c12.399 14.108 21.767 29.903 28.080 47.408s9.481 35.008 9.481 52.513v6.564c5.356 3.898 10.211 8.137 14.587 12.764s8.274 9.367 11.67 14.222z" />
<glyph unicode="&#xe600;" d="M344.437 480c21.485-7.39 37.477-20.211 40.726-44.082 1.345-9.904 0.601-20.105 0.673-30.172 0.014-1.437-0.318-3.356-1.26-4.24-14.456-13.719-29.024-27.304-46.057-43.246 0 23.142-0.552 42.773 0.219 62.368 0.425 10.803-3.214 13.762-13.868 13.677-57.759-0.488-115.525-0.233-173.291-0.233-3.454 0-6.91 0-12.219 0-0.772-21.754-1.777-42.857-2.23-63.974-0.524-23.666-0.311-23.666-23.927-23.666-21.23 0-42.468 0-64.71 0-0.297-5.996-0.679-10.102-0.679-14.201-0.014-101.586 0.184-203.165-0.269-304.73-0.056-12.099 3.781-14.894 15.234-14.838 86.847 0.439 173.68 0.226 260.534 0.248 15.171 0.007 15.199 0.071 15.199 15.638 0.021 56.605 0.163 113.21-0.17 169.815-0.057 8.091 2.23 13.755 8.332 19.007 12.565 10.867 24.607 22.37 39.24 35.821 0-6.413 0-10.328 0-14.244 0-71.726-0.078-143.452 0.050-215.171 0.050-25.464-10.046-44.018-34.553-53.476-0.928-0.361-1.565-1.515-2.315-2.301-103.957 0-207.907 0-311.858 0-19.298 7.851-31.658 21.846-37.236 41.894 0 121.018 0 242.036 0 363.055 1.522 1.104 3.264 1.997 4.537 3.341 29.973 31.757 59.904 63.543 89.749 95.399 2.287 2.435 3.873 5.522 5.784 8.311 81.46 0 162.905 0 244.365 0zM0 9.894c5.579-20.041 17.939-34.043 37.236-41.887-12.41 0-24.813 0-37.236 0 0 13.96 0 27.92 0 41.887zM275.421 178.11c-17.011 16.813-32.416 32.041-48.803 48.231 0.269 0.34 1.996 3.334 4.417 5.593 68.236 63.634 136.585 127.134 204.708 190.868 7.476 7.001 13.195 7.645 20.445-0.184 10.25-11.072 20.962-21.769 32.055-32.019 7.178-6.626 5.423-11.532-0.772-17.238-35.538-32.833-70.954-65.808-106.492-98.655-33.243-30.745-66.558-61.411-99.887-92.072-2.471-2.279-5.267-4.212-5.671-4.524zM190.706 146.685c3.809 10.781 6.527 19.447 10.059 27.779 0.807 1.94 5.628 4.396 6.435 3.773 5.331-4.084 10.364-8.686 14.739-13.762 0.857-0.991-0.928-6.357-2.641-7.108-8.623-3.781-17.649-6.711-28.593-10.683z" horiz-adv-x="493" />
<glyph unicode="&#xe601;" d="M255.996 480c-141.357 0-255.996-114.646-255.996-255.996 0-141.357 114.639-256.004 255.996-256.004s255.996 114.646 255.996 256.003c0.007 141.351-114.632 255.997-255.996 255.997zM255.996 2.051c-122.543 0-221.931 99.402-221.931 221.945s99.388 221.938 221.931 221.938c122.543 0 221.945-99.402 221.945-221.938 0.007-122.543-99.395-221.945-221.945-221.945zM366.196 256.171l-110.2-110.192-1.44 1.447-0.558-0.558-110.192 110.080 23.939 24.044 87.701-87.708 86.819 86.812z" />
<glyph unicode="&#xe602;" d="M434.565-32c-0.043 0.007-0.078 0.007-0.12 0h-419.259c-5.498 0-10.572 2.972-13.254 7.777-2.682 4.791-2.568 10.671 0.312 15.363l136.536 222.547 4.253 175.455h-17.145c-8.392 0-15.192 6.8-15.192 15.192v60.473c0 8.393 6.8 15.193 15.192 15.193h197.865c8.392 0 15.185-6.8 15.185-15.193v-60.487c0-8.393-6.8-15.192-15.185-15.192h-17.145l4.245-175.462 135.644-221.076c2.045-2.59 3.262-5.859 3.262-9.404 0-8.392-6.8-15.185-15.192-15.185zM42.323-1.622h364.985l-124.457 202.833c-1.415 2.3-2.2 4.925-2.264 7.621l-4.72 195.127c-0.099 4.090 1.457 8.053 4.317 10.975 2.859 2.937 6.779 4.586 10.869 4.586h17.514v30.102h-167.494v-30.109h17.52c4.090 0 8.011-1.649 10.869-4.586 2.851-2.922 4.409-6.885 4.316-10.975l-4.727-195.12c-0.071-2.703-0.849-5.336-2.272-7.628l-1.663-2.689-122.793-200.137z" horiz-adv-x="450" />
<glyph unicode="&#xe603;" d="M255.996 480c-141.357 0-255.996-114.639-255.996-255.989 0-141.365 114.639-256.003 255.996-256.003s255.996 114.639 255.996 256.003c0.007 141.351-114.632 255.989-255.996 255.989zM255.996 2.058c-122.543 0-221.931 99.395-221.931 221.945 0 122.536 99.388 221.931 221.931 221.931s221.945-99.395 221.945-221.931c0.007-122.55-99.395-221.945-221.945-221.945zM151.302 310.526h13.868v-12.188h-13.868v12.188zM151.838 289.77h12.915v-55.894h-12.915v55.894zM230.174 243.101l-7.727 7.608c-2.047-2.040-4.22-3.719-6.507-5.018-2.3-1.313-4.962-1.955-7.996-1.955-2.477 0-4.728 0.466-6.782 1.418-2.040 0.952-3.804 2.244-5.293 3.875-1.475 1.616-2.625 3.529-3.43 5.709-0.811 2.195-1.221 4.524-1.221 6.987v0.219c0 2.399 0.41 4.686 1.221 6.881 0.804 2.18 1.912 4.065 3.338 5.667 1.405 1.588 3.098 2.851 5.074 3.804s4.136 1.433 6.464 1.433c3.239 0 5.984-0.663 8.201-1.955 2.216-1.313 4.319-2.993 6.302-5.032l7.94 8.575c-2.611 2.893-5.667 5.223-9.161 6.987s-7.883 2.646-13.176 2.646c-4.171 0-8.031-0.784-11.602-2.329-3.564-1.56-6.641-3.656-9.245-6.302-2.597-2.647-4.623-5.745-6.083-9.315-1.454-3.557-2.18-7.319-2.18-11.277v-0.205c0-3.959 0.734-7.692 2.18-11.221 1.461-3.529 3.487-6.606 6.083-9.21 2.597-2.619 5.66-4.686 9.196-6.203 3.529-1.518 7.375-2.273 11.546-2.273 5.434 0 9.909 0.981 13.437 2.907 3.522 1.941 6.669 4.46 9.422 7.579zM296.068 250.496c1.517 3.529 2.272 7.262 2.272 11.221v0.219c0 4.008-0.741 7.777-2.223 11.263-1.475 3.5-3.543 6.577-6.19 9.224s-5.787 4.728-9.421 6.245c-3.635 1.518-7.601 2.273-11.913 2.273-4.305 0-8.278-0.784-11.913-2.329-3.635-1.559-6.775-3.655-9.422-6.302s-4.728-5.731-6.245-9.259c-1.518-3.529-2.273-7.305-2.273-11.327v-0.204c0-3.959 0.734-7.692 2.216-11.221s3.543-6.606 6.19-9.21c2.647-2.619 5.787-4.686 9.428-6.203 3.635-1.518 7.565-2.273 11.8-2.273 4.298 0 8.3 0.784 11.962 2.329 3.67 1.56 6.825 3.655 9.471 6.302s4.736 5.724 6.26 9.252zM285.425 261.513c0-2.399-0.388-4.672-1.158-6.839-0.762-2.153-1.899-4.037-3.366-5.653-1.475-1.623-3.247-2.922-5.314-3.875s-4.397-1.418-6.994-1.418c-2.456 0-4.721 0.466-6.789 1.418s-3.861 2.258-5.363 3.917c-1.511 1.666-2.689 3.571-3.529 5.724s-1.256 4.468-1.256 6.93v0.219c0 2.399 0.388 4.686 1.15 6.881 0.769 2.18 1.899 4.065 3.373 5.667 1.468 1.588 3.24 2.851 5.307 3.804s4.368 1.433 6.895 1.433c2.519 0 4.827-0.48 6.895-1.433s3.861-2.23 5.363-3.861c1.517-1.623 2.689-3.529 3.529-5.724 0.84-2.188 1.264-4.524 1.264-6.987v-0.204zM341.693 290.942c-2.18 0-4.135-0.275-5.858-0.798-1.722-0.536-3.31-1.27-4.75-2.195s-2.71-1.983-3.797-3.155-2.096-2.442-3.007-3.79v8.765h-12.915v-55.894h12.915v31.483c0 4.354 1.151 7.763 3.458 10.184 2.308 2.428 5.314 3.641 9.026 3.641 3.776 0 6.697-1.171 8.758-3.529s3.091-5.723 3.091-10.092v-31.688h12.915v35.576c0 6.563-1.722 11.785-5.166 15.66-3.444 3.881-8.334 5.829-14.672 5.829zM194.019 220.051c-5.456 0-9.675-1.489-12.668-4.453-3.063-3.034-4.587-7.65-4.587-13.868v-4.022h-7.093v-10.685h7.093v-44.892h12.915v44.892h14.608v10.586h-14.821v3.063c0 5.653 2.47 8.476 7.403 8.476 1.411 0 2.703-0.127 3.868-0.374s2.379-0.579 3.649-1.009v10.791c-1.411 0.43-2.929 0.784-4.552 1.058-1.616 0.296-3.557 0.438-5.815 0.438zM263.421 191.681c-2.428 2.47-5.187 4.326-8.286 5.611-3.105 1.271-6.309 1.906-9.612 1.906-4.502 0-8.271-1.009-11.298-3.021-3.035-2.012-5.568-4.495-7.608-7.459v9.301h-12.915v-72.817h12.915v25.611c1.969-2.604 4.475-4.905 7.495-6.881 3.035-1.969 6.832-2.964 11.405-2.964 3.31 0 6.535 0.635 9.668 1.906 3.127 1.271 5.914 3.14 8.341 5.611s4.361 5.512 5.808 9.111c1.44 3.599 2.166 7.721 2.166 12.378v0.219c0 4.644-0.734 8.779-2.216 12.378s-3.43 6.634-5.865 9.111zM258.594 169.973c0-2.745-0.416-5.236-1.277-7.459-0.84-2.23-1.99-4.093-3.43-5.611-1.446-1.517-3.141-2.703-5.089-3.557-1.941-0.84-4.001-1.271-6.19-1.271-2.195 0-4.269 0.43-6.245 1.271-1.983 0.854-3.705 2.053-5.187 3.613-1.482 1.546-2.667 3.43-3.55 5.653-0.882 2.23-1.32 4.686-1.32 7.361v0.219c0 2.675 0.438 5.116 1.32 7.29 0.882 2.195 2.068 4.079 3.55 5.667 1.482 1.602 3.204 2.809 5.187 3.656 1.969 0.854 4.051 1.271 6.245 1.271 2.188 0 4.249-0.416 6.19-1.271 1.941-0.84 3.642-2.039 5.089-3.599 1.44-1.546 2.59-3.43 3.43-5.667 0.854-2.216 1.277-4.672 1.277-7.346v-0.219zM332.745 190.679c-2.647 2.647-5.787 4.728-9.421 6.245s-7.601 2.272-11.913 2.272c-4.305 0-8.278-0.784-11.913-2.329-3.642-1.56-6.775-3.656-9.421-6.302s-4.736-5.731-6.253-9.259c-1.517-3.529-2.272-7.305-2.272-11.327v-0.204c0-3.959 0.741-7.692 2.223-11.221s3.55-6.606 6.197-9.21c2.647-2.618 5.78-4.686 9.421-6.204 3.635-1.517 7.565-2.272 11.8-2.272 4.298 0 8.3 0.784 11.962 2.329 3.67 1.56 6.825 3.656 9.471 6.302s4.728 5.731 6.253 9.259c1.517 3.529 2.272 7.262 2.272 11.221v0.219c0 4.009-0.734 7.777-2.223 11.264-1.468 3.493-3.536 6.57-6.182 9.217zM328.249 169.768c0-2.399-0.388-4.672-1.158-6.839-0.762-2.152-1.899-4.037-3.366-5.653-1.475-1.623-3.247-2.921-5.314-3.875s-4.397-1.418-6.994-1.418c-2.456 0-4.721 0.466-6.789 1.418s-3.861 2.259-5.363 3.917c-1.51 1.666-2.682 3.571-3.522 5.724s-1.271 4.467-1.271 6.93v0.219c0 2.399 0.388 4.686 1.158 6.881 0.769 2.18 1.899 4.065 3.373 5.667 1.468 1.588 3.24 2.851 5.307 3.804s4.368 1.433 6.895 1.433 4.827-0.48 6.895-1.433c2.068-0.952 3.861-2.23 5.363-3.861 1.517-1.63 2.689-3.529 3.529-5.724s1.264-4.524 1.264-6.986v-0.204z" />
<glyph unicode="&#xe604;" d="M77.418 414.611v-67.269h470.904v67.269h-470.904zM77.418 190.365h470.904v67.279h-470.904v-67.279zM77.418 33.389h470.904v67.287h-470.904v-67.287z" horiz-adv-x="626" />
<glyph unicode="&#xe605;" d="M350.296 424.885l-26.859 27.807c-35.159 36.413-92.262 36.413-127.45 0l-152.214-157.636c-25.27-26.133-32.438-64.163-21.188-96.786 3.555-10.723 8.998-20.875 16.636-29.923 1.468-1.752 2.956-3.555 4.531-5.18l26.881-27.836c1.575-1.618 3.27-3.135 5.001-4.659 8.734-7.951 18.417-13.444 28.769-17.106 29.695-10.986 64.27-5.286 89.198 17.42 1.575 1.204 2.821 2.928 4.317 4.495l61.207 63.094 14.577 15.332c2.508 2.615 2.408 6.961-0.114 9.575l-26.867 27.779c-2.487 2.565-6.697 2.721-9.205 0.107l-20.034-20.483-55.742-57.944c-13.422-13.914-34.483-15.197-49.522-4.368-1.774 1.183-3.605 2.8-5.208 4.474l-26.838 27.779c-1.596 1.653-3.192 3.555-4.339 5.443-10.466 15.538-9.105 37.226 4.339 51.111l152.228 157.614c15.012 15.538 39.583 15.538 54.616 0.029l26.845-27.835c11.584-12.033 14.334-29.93 7.851-44.656 2.38-1.959 4.681-4.111 6.961-6.462l26.838-27.807c1.361-1.439 2.721-2.821 3.769-4.339 25.834 36.385 22.856 87.973-8.984 120.959zM337.322 279.518c-1.489 1.781-2.978 3.534-4.553 5.208l-26.866 27.807c-1.575 1.617-3.298 3.163-4.995 4.709-8.663 7.737-18.574 13.494-28.933 17.156-29.802 11.093-64.034 5.072-89.070-17.762l-79.987-82.786c-2.487-2.614-2.116-6.276-0.656-8.5l0.862-1.411 26.681-27.337c3.163-2.358 6.804-2.565 9.184-0.107l75.911 78.32c13.416 13.914 34.34 15.068 49.358 4.495 1.93-1.311 3.662-2.822 5.229-4.495l26.845-27.779c1.618-1.674 3.213-3.534 4.339-5.443 5.023-7.744 7.374-17.056 6.69-26.261-0.684-8.949-4.282-17.918-11.036-24.85l-152.101-157.479c-15.118-15.646-39.584-15.538-54.624 0l-26.817 27.807c-11.506 11.877-14.227 29.56-7.972 44.286l-0.342 0.342c-2.38 2.252-4.553 4.267-6.59 6.355l-26.866 27.836c-1.354 1.389-2.614 2.671-3.869 4.211-25.613-36.385-22.52-87.866 9.205-120.724l26.867-27.807c35.138-36.413 92.262-36.413 127.45 0l152.114 157.5c25.349 26.268 32.416 64.192 21.167 96.786-3.548 10.723-9.148 20.982-16.628 29.923z" horiz-adv-x="377" />
<glyph unicode="&#xe606;" d="M514.117 19.77l-109.417 109.41c25.591 36.269 40.704 80.447 40.704 128.119 0 122.801-99.909 222.702-222.709 222.702-122.793 0-222.695-99.901-222.695-222.702 0-122.793 99.901-222.695 222.695-222.695 48.756 0 93.873 15.781 130.58 42.469l109.072-109.065 51.77 51.762zM48.806 257.298c0 95.889 78.013 173.896 173.896 173.896 95.889 0 173.903-78.013 173.903-173.896 0-95.875-78.014-173.896-173.903-173.896-95.882 0-173.896 78.014-173.896 173.896z" horiz-adv-x="514" />
<glyph unicode="&#xe607;" d="M755.863 253.238l-55.334 34.189c22.337 20.702 35.414 49.915 35.414 81.462 0 61.267-49.873 111.112-111.183 111.112s-111.183-49.845-111.183-111.112c0-31.546 13.078-60.767 35.422-81.455l-55.341-34.202c-0.219-0.134-0.373-0.331-0.585-0.472-4.678 56.99-52.502 101.966-110.71 101.966-58.18 0-105.968-44.976-110.647-101.966-0.212 0.141-0.373 0.338-0.585 0.472l-55.341 34.202c22.344 20.688 35.422 49.901 35.422 81.454 0.007 61.267-49.866 111.112-111.183 111.112-61.302 0-111.183-49.845-111.183-111.112 0-31.546 13.078-60.767 35.428-81.454l-55.341-34.202c-5.553-3.417-8.934-9.477-8.934-16.009v-125.19c0-10.408 8.434-18.834 18.834-18.834h223.563v-106.363c0-10.4 8.435-18.834 18.834-18.834h242.327c10.407 0 18.834 8.428 18.834 18.834v106.363h223.563c10.408 0 18.835 8.428 18.835 18.834v125.19c0.007 6.532-3.382 12.577-8.928 16.016zM484.731 200.202v-54.481l-26.613 16.439c11.534 10.682 20.54 23.668 26.613 38.043zM306.637 162.173l-26.572-16.432v54.446c6.067-14.368 15.058-27.339 26.572-38.014zM37.662 226.724l70.688 43.666c5.799 3.594 9.21 10.019 8.921 16.841-0.296 6.813-4.242 12.923-10.33 15.995-24.944 12.591-40.431 37.746-40.431 65.671 0 40.494 32.984 73.45 73.52 73.45s73.52-32.955 73.52-73.45c0-27.924-15.494-53.079-40.431-65.671-6.081-3.072-10.034-9.181-10.322-15.995-0.296-6.821 3.114-13.247 8.913-16.841l70.688-43.666v-95.864h-204.735v95.864zM484.731 5.662h-204.664v95.793l70.618 43.659c5.799 3.579 9.202 10.019 8.913 16.82-0.289 6.813-4.228 12.923-10.301 16.002-24.909 12.613-40.375 37.789-40.375 65.685 0 40.495 32.948 73.443 73.443 73.443 40.53 0 73.514-32.948 73.514-73.443 0-27.91-15.495-53.072-40.424-65.671-6.088-3.079-10.034-9.202-10.33-16.002-0.296-6.813 3.122-13.254 8.913-16.834l70.695-43.659v-95.793zM727.135 130.853h-204.735v95.871l70.688 43.666c5.799 3.594 9.216 10.019 8.913 16.841-0.289 6.813-4.242 12.923-10.322 15.995-24.937 12.591-40.432 37.746-40.432 65.671 0 40.494 32.984 73.45 73.52 73.45 40.53 0 73.52-32.955 73.52-73.45 0-27.924-15.487-53.079-40.424-65.671-6.081-3.072-10.034-9.181-10.322-15.995-0.303-6.821 3.115-13.247 8.913-16.841l70.681-43.666v-95.871z" horiz-adv-x="765" />
<glyph unicode="&#xe608;" d="M114.142 217.153c17.165 0 32.821 3.377 46.978 10.096 14.149 6.72 26.329 15.778 36.54 27.147 10.196 11.363 18.089 24.58 23.663 39.675 5.567 15.067 8.347 30.959 8.347 47.661v1.401c0 16.709-2.78 32.465-8.347 47.312s-13.346 27.958-23.315 39.327c-9.983 11.377-21.921 20.286-35.836 26.806-13.922 6.484-29.472 9.734-46.63 9.734-17.172 0-32.835-3.363-46.978-10.096-14.171-6.712-26.351-15.764-36.547-27.126-10.218-11.376-18.096-24.594-23.663-39.675s-8.354-30.972-8.354-47.674v-1.387c0-16.709 2.787-32.48 8.354-47.327 5.567-14.861 13.332-27.958 23.314-39.313 9.976-11.391 21.928-20.314 35.85-26.799 13.915-6.513 29.451-9.763 46.623-9.763zM61.945 343.14c0 19.013 4.629 35.374 13.915 49.061 9.272 13.68 22.035 20.528 38.275 20.528 15.77 0 28.648-6.954 38.63-20.89 9.976-13.915 14.96-30.61 14.96-50.106v-1.387c0-19.027-4.643-35.388-13.922-49.061-9.286-13.694-22.042-20.527-38.275-20.527-15.778 0-28.654 6.833-38.63 20.527-9.983 13.681-14.96 30.496-14.96 50.455v1.4zM405.757 460.752l-356.341-487.185h68.899l356.341 487.185zM492.404 180.62c-9.983 11.377-21.921 20.3-35.836 26.806-13.922 6.485-29.473 9.734-46.63 9.734-17.178 0-32.836-3.363-46.978-10.082-14.156-6.733-26.337-15.778-36.54-27.147-10.217-11.377-18.096-24.594-23.663-39.661-5.567-15.095-8.354-30.98-8.354-47.675v-1.401c0-16.695 2.787-32.48 8.354-47.327s13.332-27.958 23.315-39.313c9.976-11.377 21.921-20.3 35.843-26.791 13.922-6.499 29.465-9.748 46.63-9.748s32.821 3.377 46.978 10.082c14.149 6.719 26.329 15.778 36.54 27.147 10.196 11.363 18.089 24.58 23.663 39.675 5.567 15.067 8.347 30.966 8.347 47.675v1.387c0 16.695-2.78 32.466-8.347 47.327-5.575 14.839-13.346 27.937-23.322 39.313zM462.135 91.179c0-19.027-4.643-35.388-13.922-49.061-9.286-13.695-22.042-20.527-38.275-20.527-15.778 0-28.661 6.833-38.63 20.527-9.983 13.68-14.96 30.51-14.96 50.469v1.387c0 19.013 4.636 35.374 13.922 49.061 9.279 13.68 22.035 20.541 38.282 20.541 15.771 0 28.647-6.968 38.63-20.89 9.976-13.915 14.967-30.624 14.967-50.106v-1.401zM729.803 283.108l-64.185-64.171v261.063h-28.321v-261.361l-65.884 65.884-20.023-20.023 99.922-99.921 98.514 98.507-20.023 20.023zM648.426 207.504h5.774l-2.887-2.873-2.887 2.873z" horiz-adv-x="750" />
<glyph unicode="&#xe609;" d="M407.305 33.432c-15.562 23.651-39.29 51.842-66.8 79.359-31.439 31.432-73.339 66.976-103.411 80.3 3.122 7.591 5.858 17.084 8.244 28.647 5.718 27.734 8.875 64.436 8.875 103.347 0 38.904-3.157 75.613-8.875 103.34-7.255 35.186-17.695 51.576-32.828 51.576-15.148 0-25.573-16.389-32.835-51.582-5.718-27.728-8.869-64.436-8.869-103.34 0-38.911 3.15-75.62 8.869-103.347 2.441-11.822 5.241-21.476 8.454-29.138-29.987-13.681-71.269-48.748-102.337-79.822-27.51-27.503-51.239-55.694-66.8-79.345-19.75-30.015-23.967-48.98-13.254-59.686 2.617-2.624 7.346-5.739 14.993-5.739 28.226 0 84.46 46.222 124.044 85.8 27.51 27.517 51.239 55.701 66.808 79.359 0.583 0.884 1.018 1.663 1.571 2.526 0.554-0.863 0.989-1.642 1.571-2.526 15.569-23.659 39.297-51.842 66.8-79.352 39.578-39.585 95.819-85.807 124.044-85.807 7.647 0 12.37 3.115 14.993 5.739 10.7 10.707 6.49 29.671-13.26 59.693zM212.511 452.231c7.051-13.534 17.141-57.027 17.141-127.146 0-69.572-9.921-112.91-16.965-126.781-0.119 0.014-0.238 0.021-0.358 0.035-7.044 13.913-16.958 57.224-16.958 126.753-0.007 70.105 10.082 113.611 17.141 127.139zM127.398 71.165c-47.878-47.871-86.277-72.925-102.014-77.745 4.61 14.601 28.24 52.466 77.766 101.986 40.855 40.841 74.743 65.025 93.686 74.252 0.631-2.708 1.607-5.627 2.799-8.7-10.173-18.831-33.088-50.642-72.238-89.792zM298.893 71.172c-39.143 39.136-62.058 70.94-72.245 89.792 1.207 3.080 2.182 6.013 2.814 8.735 18.845-9.205 52.775-33.389 93.672-74.293 49.534-49.526 73.157-87.392 77.781-101.986-15.737 4.827-54.144 29.875-102.021 77.752z" horiz-adv-x="427" />
<glyph unicode="&#xe60a;" d="M492.495 121.523c-14.288 0-27.608-3.969-39.060-10.761l-37.499 33.166c14.752 23.061 23.325 50.44 23.325 79.851 0 33.993-11.43 65.278-30.636 90.32l29.866 28.156c12.913-9.856 28.99-15.785 46.5-15.785 42.395 0 76.772 34.392 76.772 76.786s-34.364 76.743-76.758 76.743c-42.402 0-76.786-34.335-76.786-76.736 0-15.842 4.803-30.537 13.012-42.758l-29.51-27.822c-26.488 24.565-61.942 39.63-100.938 39.63-47.868 0-90.427-22.69-117.599-57.873l-35.966 20.125c2.837 6.984 4.44 14.616 4.44 22.633 0 33.152-26.874 60.018-60.032 60.018-33.166 0-60.047-26.859-60.047-60.018 0-33.166 26.881-60.061 60.047-60.061 16.041 0 30.579 6.349 41.354 16.604l36.558-20.445c-11.010-20.738-17.267-44.383-17.267-69.51 0-29.589 8.702-57.146 23.624-80.307l-35.247-31.064c-13.861 13.654-32.874 22.091-53.868 22.091-42.395-0.007-76.779-34.363-76.779-76.758s34.385-76.786 76.779-76.786c42.394 0 76.779 34.392 76.779 76.786 0 12.307-2.971 23.902-8.124 34.214l35.81 31.57c27.159-29.632 66.168-48.231 109.525-48.231 43.549 0 82.716 18.75 109.874 48.601l33.344-29.481c-11.381-13.39-18.279-30.707-18.279-49.649 0-42.394 34.377-76.772 76.779-76.772 42.395 0 76.78 34.377 76.78 76.772s-34.37 76.751-76.772 76.751zM81.626 331.045c-14.431 0-26.125 11.709-26.125 26.139s11.695 26.125 26.125 26.125c14.438 0 26.139-11.694 26.139-26.125s-11.701-26.139-26.139-26.139zM76.779 17.471c-22.213 0-40.242 18.022-40.242 40.278 0 22.227 18.029 40.236 40.242 40.236 22.255 0 40.278-18.009 40.278-40.236 0.007-22.255-18.016-40.278-40.278-40.278zM485.005 443.506c22.248 0 40.278-18.022 40.278-40.242 0-22.256-18.029-40.293-40.278-40.293-22.227 0-40.25 18.037-40.25 40.293-0.007 22.22 18.015 40.242 40.25 40.242zM290.784 114.033c-60.645 0-109.788 49.144-109.788 109.746 0 60.659 49.144 109.803 109.788 109.803 60.653 0 109.803-49.144 109.803-109.803 0-60.596-49.158-109.746-109.803-109.746zM492.495 4.494c-22.22 0-40.243 18.022-40.243 40.278 0 22.227 18.022 40.25 40.243 40.25 22.255 0 40.278-18.022 40.278-40.25 0.007-22.248-18.023-40.278-40.278-40.278z" horiz-adv-x="570" />
<glyph unicode="&#xe60b;" d="M2211.541 334.53l-125.695-162.871-61.832 162.871h-83.809l-54.792-267.943h-1.012l-110.103 267.943h-68.866l-16.54-79.953c-18.271 22.696-47.929 39.72-92.737 39.72h-164.267v-318.716h98.203v96.428h58.026c24.698 0 46.874 4.226 65.523 12.642l-22.611-109.070h62.837l54.293 266.454h1.012l110.602-266.454h68.872l59.288 286.014 58.689-143.731-29.159-142.284h62.837l28.155 137.239 177.465 221.703h-74.381zM1591.768 134.22l-3.321 4.952-0.214 5.786-9.129 8.879h-118.512v8.301l7.874 5.166h1.439l2.287 3.1 3.114 1.005 2.066 1.902 3.1 4.539h1.874l2.287 2.487 0.399 3.335-1.439 2.238 0.207 5.793-3.727 1.461v4.532l12.243 3.712 17.174-0.406 1.461-0.613 3.52-0.421 3.713-5.166 2.508-0.221 1.454 2.295 5.18 1.447 5.18-0.428 3.499-1.867 3.114 3.32 4.155 1.853 2.487 2.494 5.793 3.3 1.461-1.041 3.107 2.273 1.034 3.727-2.273 7.639 3.1 4.567 1.475 0.2v2.273l-2.294 0.805-0.414 1.653-3.727 0.848 3.313 3.093 2.281 0.613 3.3 0.435 6.641 7.034v3.299l17.188 14.872 3.534 0.207 1.247 1.661 37.903 1.24 0.228-3.484-1.254-2.11 0.82-1.852-1.439-1.653 0.414-6.385 2.494-9.549-0.207-1.646-0.82-0.813-1.461-5.572-0.414-1.888 1.439-1.433v-1.852l0.199-4.959-0.378-6.834 2.237-0.2 1.889-0.62v-7.86l0.805-0.442 0.199-20.038-5.138-24.805 0.805-30.627-5.18-5.394 2.259-3.499-3.3-6.192-4.354-4.104 1.247 3.92 0.406 3.079 0.634 3.1-25.71 15.72-3.085-0.178zM1615.996 98.576l-3.962-1.653 0.833 2.893 2.309 1.048 1.019-0.62-0.199-1.668zM1642.519 103.336l-3.085 0.606-1.496-1.026-5.551-1.646-2.915-1.026-0.62-0.663h-2.501l-0.193 1.283-2.694-2.288-1.668 0.634 1.881 2.060-0.848 1.433-2.48-2.459-1.66 0.171-0.406 1.86 2.473 3.527h1.468l1.034 1.034 1.675 0.421 0.82 2.252 1.867 0.435 1.639 1.646 2.687 0.841 2.915 0.207 0.613-0.642 5.188 0.2 1.867 1.447 12.841 0.221 6.214 5.152 2.9 1.048 0.42-0.627-1.852-1.254-0.221-1.247-3.121-3.485-2.073-0.428 0.214-1.041 1.681-0.627 1.646 0.442 2.872 3.086 2.487 0.235 1.268 1.212 1.439-1.034 2.494 0.413 4.967 2.473 1.041-0.399-8.502-4.76-5.793-3.734-6.428-2.687-7.874-2.487-6.627-0.776zM472.843 293.642h-250.599v-30.884c-21.649 25.176-57.507 38.26-97.369 38.26-55.931 0-113.16-29.046-113.16-91.048 0-32.088 15.606-64.169 68.502-78.478 42.492-11.708 70.675-17.344 92.353-25.589 12.57-4.76 25.575-14.295 25.575-38.152 0-23.401-17.78-46.817-65.466-46.817-43.355 0-78.478 18.642-78.478 66.329h-54.2c1.304-76.725 58.532-110.552 129.208-110.552 61.569 0 123.129 27.755 123.129 97.113 0 32.081-19.511 66.778-60.272 78.906-16.041 4.767-84.543 22.561-89.317 23.844-22.112 6.086-36.849 18.214-36.849 39.906 0 31.219 31.653 40.319 56.801 40.319 37.283 0 64.162-14.737 66.763-54.635h54.2c0 17.046-3.855 31.91-10.596 44.659h87.151v-262.734h54.193v262.734h98.423v46.825zM1494.477 363.405l-116.602 116.595-116.588-116.595h67.512l-0.022-242.745c0-32.565 0-73.19-46.426-73.19-47.751 0-47.751 40.625-47.751 73.19v173.638h-98.203v-0.663h-219.465v-46.554c-13.454 29.686-45.271 46.554-94.91 46.554h-147.85v-283.413l-109.169 283.413h-57.663l-118.789-309.558h55.925l29.053 81.935h123.571l29.045-81.935h102.229v127.462h79.775c49.861 0 61.576-25.14 61.576-81.935 0-15.178 0-32.088 8.223-45.527h58.105c-11.708 12.577-16.903 45.528-16.903 81.507 0 48.991-27.321 62.873-45.962 65.474v0.855c9.969 3.471 51.157 18.642 51.157 78.043 0 13.832-2.487 26.153-7.275 36.849h97.861v-262.734h54.193v262.734h67.276v-148.013c0-88.39 48.207-130.797 145.512-130.797 97.298 0 145.063 42.399 145.063 130.797l-0.014 264.608h67.518zM488.271 107.212l46.825 133.113h1.297l46.39-133.113h-94.512zM817.262 152.726h-88.889v96.699h88.020c28.183 0 53.758-7.81 53.758-47.267 0-32.509-18.641-49.433-52.889-49.433z" horiz-adv-x="2286" />
<glyph unicode="&#xe60c;" d="M239.776 480c10.816 0 21.647 0 32.47 0 7.375-0.967 14.784-1.792 22.137-2.937 45.49-7.068 86.401-24.733 122.106-53.846 48.157-39.268 78.628-89.359 90.582-150.452 2.112-10.752 3.314-21.689 4.928-32.534 0-10.823 0-21.646 0-32.47-0.932-7.183-1.7-14.379-2.816-21.526-8.64-55.269-32.392-103.063-71.859-142.693-37.050-37.192-81.445-61.036-133.2-70.721-10.553-1.977-21.248-3.236-31.88-4.822-10.824 0-21.654 0-32.47 0-7.375 0.967-14.784 1.778-22.116 2.93-45.711 7.139-86.821 24.897-122.626 54.245-47.852 39.233-78.224 89.189-90.099 150.082-2.105 10.745-3.321 21.668-4.935 32.505 0 10.816 0 21.647 0 32.47 0.917 7.175 1.657 14.386 2.788 21.525 8.683 55.247 32.392 103.055 71.866 142.694 37.056 37.198 81.438 61.057 133.193 70.728 10.575 1.984 21.284 3.236 31.929 4.822zM114.049 236.811c0.234 1.088 0.512 1.87 0.555 2.66 1.373 27.925 6.172 55.24 14.905 81.8 1.373 4.181-1.216 4.835-3.868 6.208-17.131 8.832-34.212 17.742-51.279 26.688-2.119 1.11-4.061 2.546-6.443 4.053-25.842-36.814-39.915-76.88-42.596-121.409 29.569 0 58.838 0 88.726 0zM444.984 356.884c-20.63-10.361-40.37-20.417-60.26-30.138-3.805-1.863-2.311-3.868-1.764-6.521 4.452-21.483 8.896-42.973 13.014-64.527 1.188-6.222 1.315-12.637 1.92-18.894 29.867 0 59.13 0 88.791 0-2.709 44.488-16.697 84.567-41.7 120.080zM129.552 123.608c-9.152 28.231-13.945 57.615-15.317 87.596-29.938 0-59.208 0-88.918 0 2.759-44.673 16.74-84.88 42.013-120.442 21.028 11.101 41.338 21.825 62.223 32.846zM444.728 90.747c25.224 35.897 39.268 75.962 41.942 120.471-29.682 0-58.952 0-88.243 0-1.771-14.92-2.901-29.839-5.462-44.502-2.603-14.841-6.635-29.433-9.877-43.442 20.238-10.688 40.555-21.404 61.64-32.526zM268.611 148.796c30.55-5.319 60.26-10.496 90.269-15.723 6.87 15.026 15.062 62.827 13.014 77.981-34.382 0-68.779 0-103.291 0 0.007-21.483 0.007-42.476 0.007-62.259zM152.777 133.030c30.557 5.305 60.388 10.475 90.249 15.659 0 20.125 0 41.387 0 62.486-34.731 0-68.943 0-103.554 0 0.405-27.485 5.654-53.69 13.305-78.145zM243.246 299.219c-30.372 5.284-59.706 10.389-89.722 15.616-7.808-24.299-13.305-50.489-13.959-77.946 34.859 0 69.228 0 103.681 0 0 21.569 0 42.703 0 62.33zM268.932 299.283c0-19.954 0-41.238 0-62.408 34.688 0 68.914 0 103.113 0 1.095 18.724-7.574 65.366-13.909 77.896-29.789-5.177-59.13-10.268-89.203-15.488zM243.111-4.259c0 42.596 0 84.083 0 125.534-17.785 1.458-69.512-8.086-80.833-14.528 18.319-42.86 44.708-79.823 80.833-111.006zM268.768-4.401c36.288 31.467 62.75 68.41 81.245 111.873-26.738 8.327-53.526 13.504-81.245 14.123 0-42.205 0-83.514 0-125.997zM162.925 340.229c26.696-8.192 52.957-13.085 80.036-13.881 0 41.287 0 81.928 0 123.308-35.35-30.564-61.455-66.696-80.036-109.427zM268.904 449.756c0-41.757 0-82.419 0-123.045 18.148-1.188 68.033 7.73 79.837 14.293-18.269 41.956-44.381 78.116-79.837 108.751zM307.567 448.582c27.137-29.774 49.373-62.578 65.409-101.121 18.901 10.019 37.199 19.719 56.058 29.725-34.070 37.17-73.815 60.886-121.466 71.396zM139.046 347.504c16.007 38.535 38.287 71.311 65.374 101.086-47.78-10.61-87.638-34.311-121.46-71.517 19.016-10.019 37.27-19.641 56.086-29.568zM82.988 70.871c33.181-36.445 72.214-59.976 120.343-71.851-28.154 30.486-49.721 63.254-65.217 101.164-18.66-9.927-36.552-19.442-55.126-29.313zM308.669-1.010c48.108 11.933 87.177 35.399 120.365 71.937-18.852 9.949-36.843 19.442-55.261 29.17-15.574-38.315-37.22-70.778-65.103-101.107z" />
<glyph unicode="&#xe60d;" d="M2210.729 334.849l-125.307-163.296-61.803 163.296h-83.916l-54.999-268.19h-0.567l-110.565 268.19h-68.607l-43.659-212.058 24.381-3.402-28.35-14.175-26.649-129.276h62.937l53.865 265.923h1.134l110.565-265.923h69.174l58.968 285.767 58.968-143.45-29.484-142.317h62.937l28.35 137.214 176.903 221.696zM54.432 87.637c0-47.628 35.154-66.339 78.246-66.339 47.628 0 65.205 23.247 65.205 47.061s-13.041 33.453-25.515 37.989c-21.546 8.505-49.896 13.608-92.421 25.515-52.731 14.175-68.040 45.927-68.040 78.246 0 61.803 57.267 91.287 113.4 91.287 64.638 0 118.503-34.020 118.503-98.658h-54.432c-2.835 39.69-29.484 54.432-66.906 54.432-24.948 0-56.7-9.072-56.7-40.257 0-21.546 14.742-34.020 36.855-39.69 4.536-1.134 73.143-19.278 89.019-23.814 40.824-11.907 60.102-47.061 60.102-78.813 0-69.174-61.803-96.957-123.039-96.957-70.875 0-128.142 34.020-129.275 110.565h54.999zM222.263 293.457h250.613v-46.494h-98.658v-262.521h-53.865v262.521h-98.091zM507.464 293.457h57.834l119.070-309.582h-57.834l-29.484 82.215h-123.606l-28.917-81.648h-56.133l119.070 309.014zM488.186 107.481h94.689l-46.494 133.244h-1.134l-47.061-133.244zM674.162 293.457h147.986c67.473 0 102.060-31.185 102.060-83.916 0-59.535-41.391-74.277-51.030-78.246v-1.134c18.711-2.835 45.927-16.443 45.927-65.205 0-35.721 5.103-69.174 17.010-81.648h-57.834c-8.505 13.608-8.505 30.618-8.505 45.36 0 56.7-11.907 81.648-61.803 81.648h-79.947v-127.575h-54.432l0.567 310.716zM728.027 152.841h89.019c34.020 0 52.731 17.010 52.731 49.329 0 39.69-25.515 47.061-53.865 47.061h-87.885v-96.39zM916.837 293.457h250.613v-46.494h-98.658v-262.521h-54.432v262.521h-97.524z" horiz-adv-x="2286" />
<glyph unicode="&#xe60e;" d="M1426.985 363.401h67.515l-116.604 116.599-116.599-116.599h67.515l-0.023-242.743c0-32.578 0-73.199-46.428-73.199-47.75 0-47.75 40.62-47.75 73.199v173.639h-98.211v-195.509c0-88.387 48.209-130.794 145.518-130.794 97.303 0 145.071 42.407 145.071 130.794l-0.005 264.613zM1596.194 294.298h-164.269v-318.709h98.199v96.418h58.022c73.21 0 124.987 36.157 124.987 113.377 0.005 45.526-30.349 108.913-116.939 108.913zM1591.793 134.214l-3.318 4.952-0.216 5.785-9.131 8.882h-118.51v8.303l7.878 5.156h1.447l2.285 3.091 3.114 1.015 2.059 1.889 3.102 4.543h1.871l2.285 2.484 0.397 3.341-1.44 2.246 0.204 5.796-3.726 1.457v4.531l12.239 3.709 17.174-0.409 1.464-0.601 3.516-0.425 3.72-5.156 2.495-0.221 1.464 2.291 5.172 1.447 5.184-0.42 3.499-1.872 3.108 3.324 4.158 1.849 2.49 2.49 5.791 3.301 1.464-1.038 3.108 2.28 1.032 3.715-2.268 7.646 3.097 4.565 1.469 0.198v2.28l-2.292 0.811-0.409 1.65-3.726 0.851 3.313 3.091 2.28 0.618 3.301 0.419 6.641 7.038v3.301l17.185 14.871 3.534 0.21 1.242 1.662 37.915 1.236 0.227-3.488-1.254-2.104 0.822-1.855-1.435-1.65 0.409-6.392 2.49-9.546-0.216-1.645-0.822-0.822-1.457-5.57-0.409-1.883 1.435-1.435v-1.855l0.204-4.957-0.38-6.84 2.252-0.199 1.883-0.613v-7.861l0.811-0.437 0.204-20.038-5.144-24.808 0.811-30.622-5.178-5.394 2.257-3.5-3.301-6.193-4.356-4.112 1.248 3.919 0.402 3.079 0.635 3.103-25.716 15.716-3.085-0.187zM1616.027 98.568l-3.953-1.651 0.828 2.892 2.309 1.055 1.026-0.618-0.21-1.679zM1669.273 113.036l-5.796-3.743-6.431-2.683-7.883-2.484-6.619-0.8-3.091 0.607-1.497-1.032-5.553-1.651-2.921-1.021-0.612-0.663h-2.495l-0.198 1.288-2.694-2.291-1.673 0.63 1.883 2.059-0.851 1.44-2.473-2.462-1.668 0.176-0.402 1.849 2.473 3.534h1.469l1.032 1.032 1.673 0.42 0.828 2.246 1.861 0.431 1.65 1.651 2.688 0.839 2.915 0.21 0.607-0.641 5.184 0.199 1.871 1.452 12.835 0.221 6.216 5.15 2.898 1.055 0.426-0.63-1.843-1.253-0.227-1.242-3.12-3.488-2.064-0.42 0.21-1.043 1.685-0.63 1.645 0.442 2.887 3.079 2.478 0.244 1.265 1.208 1.44-1.032 2.49 0.409 4.968 2.473 1.043-0.397-8.507-4.736z" horiz-adv-x="2286" />
<glyph unicode="&#xe60f;" d="M253.709-32l-253.709 253.726 3.347 3.315-1.284 1.268 253.433 253.693 55.356-55.096-201.928-201.911 199.864-199.897z" horiz-adv-x="311" />
<glyph unicode="&#xe610;" d="M2.063 23.096l199.864 199.897-201.928 201.911 55.373 55.096 253.416-253.693-1.284-1.268 3.347-3.315-253.709-253.725z" horiz-adv-x="311" />
<glyph unicode="&#xe611;" d="M343.284 443.678c-59.361-25.776-105.059-56.821-137.085-93.144s-48.040-68.538-48.040-96.656c0-14.843 2.341-28.118 7.034-39.835 2.341-6.25 12.888-18.742 31.63-37.493 18.742-18.742 29.685-31.63 32.81-38.664 5.467-13.275 8.205-28.514 8.205-45.699 0-34.368-11.718-63.656-35.152-87.875s-50.382-36.322-80.841-36.322c-32.026 0-60.304 12.888-84.986 38.664-24.52 25.786-36.861 58.199-36.861 97.25 0 69.52 27.334 139.814 82.012 210.892s133.96 126.152 237.848 165.203l23.425-36.323zM683.189 443.678c-59.361-25.776-105.059-56.821-137.086-93.144s-48.040-68.538-48.040-96.656c0-14.843 2.341-28.118 7.034-39.835 2.341-6.25 12.888-18.742 31.63-37.493s29.685-31.63 32.81-38.664c5.467-13.275 8.205-28.514 8.205-45.699 0-34.368-11.717-63.656-35.152-87.875s-50.382-36.322-80.841-36.322c-32.026 0-60.305 12.888-84.986 38.664-24.52 25.786-36.861 58.199-36.861 97.25 0 69.52 27.334 139.814 82.012 210.892s133.96 126.152 237.848 165.203l23.425-36.323z" horiz-adv-x="683" />
<glyph unicode="&#xe612;" d="M339.904 4.313c59.361 25.776 105.059 56.82 137.086 93.144s48.040 68.538 48.040 96.656c0 14.842-2.341 28.118-7.034 39.835-2.341 6.25-12.888 18.742-31.63 37.494-18.742 18.742-29.685 31.63-32.81 38.664-5.467 13.275-8.205 28.514-8.205 45.698 0 34.368 11.717 63.657 35.152 87.875s50.382 36.322 80.84 36.322c32.026 0 60.304-12.888 84.986-38.664 24.53-25.776 36.87-58.19 36.87-97.241 0-69.52-27.334-139.814-82.011-210.892s-133.96-126.142-237.839-165.203l-23.444 36.313zM0 4.313c59.361 25.776 105.059 56.82 137.085 93.144s48.040 68.538 48.040 96.656c0 14.842-2.341 28.118-7.034 39.835-2.341 6.25-12.888 18.742-31.63 37.494s-29.685 31.63-32.81 38.664c-5.467 13.275-8.205 28.514-8.205 45.698 0 34.368 11.718 63.657 35.152 87.875s50.382 36.322 80.841 36.322c32.026 0 60.305-12.888 84.986-38.664 24.53-25.776 36.87-58.19 36.87-97.241 0-69.52-27.334-139.814-82.012-210.892s-133.96-126.142-237.839-165.203l-23.444 36.313z" horiz-adv-x="683" />
<glyph unicode="&#xe613;" d="M511.255 425.048l-55.211 54.952-201.089-201.284-199.728 199.938-55.227-54.951 201.349-201.43-199.291-199.322 54.935-54.952 199.306 199.322 197.962-197.977 54.935 54.952-199.339 199.371z" />
<glyph unicode="&#xe614;" d="M182.964 480c-101.132 0-182.964-84.004-182.964-187.55 0-103.376 144.292-324.45 182.964-324.45 38.696 0 182.964 221.098 182.964 324.45 0 103.546-81.832 187.55-182.964 187.55zM182.988 204.518c-47.455 0-85.906 39.379-85.906 87.956 0 48.748 38.452 88.127 85.906 88.127s86.053-39.379 86.053-88.127c0-48.577-38.598-87.956-86.053-87.956z" horiz-adv-x="366" />
<glyph unicode="&#xe615;" d="M0 480v-512h489.534v512h-489.534zM433.755 26.224h-377.93v395.366h377.906v-395.366zM390.873 376.706h-298.498v-96.869h298.498v96.869zM244.883 241.821h-152.508v-33.71h152.508v33.709zM241.601 176.543h-149.226v-99.010h149.226v99.010zM274.868 77.533h115.981v164.288h-115.981v-164.288z" horiz-adv-x="490" />
<glyph unicode="&#xe616;" d="M498.135 297.486c0-25.028-6.474-48.626-19.513-70.863-12.993-22.236-30.765-41.548-53.248-57.958-22.527-16.454-48.894-29.515-79.101-39.070-30.23-9.645-62.624-14.467-97.185-14.467-7.881 0-15.718 0.335-23.554 1.005-7.769 0.603-15.382 1.362-22.862 2.211-31.368-24.089-67.224-40.745-107.566-49.563-4.264-0.938-8.618-1.741-12.972-2.5-4.421-0.714-9.042-1.518-13.976-2.389-2.545-0.402-4.822 0.268-6.877 2.144-2.010 1.808-3.483 3.751-4.286 5.894v0.603c-0.849 2.612-0.514 4.666 0.96 6.274 1.451 1.541 3.394 3.461 5.76 5.604 3.885 3.817 7.546 7.702 11.029 11.654 3.55 3.93 6.698 8.506 9.489 13.462 2.746 5.001 5.358 10.962 7.837 17.772 2.456 6.832 4.532 15.271 6.207 25.385-30.117 16.588-53.984 37.463-71.689 62.557-17.771 25.095-26.59 52.443-26.59 82.249 0 25.34 6.564 49.094 19.669 71.175 13.105 22.103 30.966 41.437 53.515 57.824 22.46 16.365 48.76 29.515 78.922 39.070 30.006 9.645 62.401 14.445 96.962 14.445 34.583 0 66.956-4.8 97.184-14.445 30.23-9.555 56.574-22.705 79.101-39.070 22.482-16.387 40.254-35.721 53.248-57.824 13.060-22.080 19.535-45.835 19.535-71.175zM613.784 201.663c0-29.649-8.885-57.154-26.568-82.226-17.771-25.094-41.66-45.902-71.755-62.579 1.741-10.024 3.751-18.486 6.095-25.296 2.322-6.877 5.068-12.704 8.149-17.883 3.17-4.934 6.296-9.421 9.622-13.373 3.282-3.93 6.899-7.837 10.716-11.699 2.144-2.144 4.019-4.063 5.604-5.894 1.607-1.853 1.942-3.817 1.072-5.961v-0.647c-0.402-2.5-1.652-4.555-3.952-6.229-2.255-1.608-4.599-2.143-7.212-1.741-4.889 0.803-9.556 1.675-13.909 2.411s-8.707 1.474-12.994 2.389c-20.54 4.331-39.74 10.672-57.645 19.245-17.928 8.484-34.605 18.664-49.921 30.43-7.479-0.87-15.092-1.608-22.928-2.277-7.769-0.603-15.606-1.005-23.554-1.005-30.118 0-58.382 3.817-84.816 11.23-26.478 7.502-50.479 17.526-72.024 30.185 1.295 0.781 2.679 1.675 4.286 2.523 1.585 0.781 3.036 1.675 4.331 2.545 10.917-1.25 21.745-1.942 32.641-1.942 42.062 0 81.467 6.028 118.104 18.128 36.726 12.101 68.563 28.577 95.443 49.563 26.947 21.098 48.113 45.835 63.562 74.279 15.516 28.287 23.264 58.873 23.264 91.603 0 8.752-0.67 17.615-1.942 26.836 20.451-16.678 36.659-35.342 48.492-56.016 11.899-20.696 17.838-42.933 17.838-66.598z" horiz-adv-x="614" />
<glyph unicode="&#xe617;" d="M0 224h64v-256h128v192h128v-192h128v256h64l-256 256-256-256z" />
<glyph unicode="&#xe618;" d="M255.996 480c-141.357 0-255.996-114.639-255.996-255.989 0-141.365 114.639-256.003 255.996-256.003s255.996 114.639 255.996 256.003c0.007 141.351-114.632 255.989-255.996 255.989zM255.996 2.058c-122.543 0-221.931 99.395-221.931 221.945 0 122.536 99.388 221.931 221.931 221.931s221.945-99.395 221.945-221.931c0.007-122.55-99.395-221.945-221.945-221.945zM373.62 244.279h-97.341v97.341h-40.559v-97.341h-97.341v-40.558h97.341v-97.341h40.559v97.341h97.341z" />
<glyph unicode="&#xe619;" d="M351.761 257.428l-35.495 36.936-113.775-118.405v304.040h-50.202v-304.579l-116.794 121.561-35.495-36.941 177.131-184.374 174.629 181.761zM6.572-32h338.622v52.255h-338.622v-52.255z" horiz-adv-x="352" />
<glyph unicode="&#xe61a;" d="M213.246 223.925c23.58 0 42.679 19.099 42.679 42.679s-19.099 42.679-42.679 42.679-42.679-19.099-42.679-42.679 19.12-42.679 42.679-42.679zM213.246 394.642c23.58 0 42.679 19.099 42.679 42.679s-19.099 42.679-42.679 42.679-42.679-19.099-42.679-42.679 19.12-42.679 42.679-42.679zM426.514 178.707l-45.688 45.154-167.558-165.553-167.558 165.553-45.709-45.176 213.246-210.707 213.268 210.728z" horiz-adv-x="427" />
<glyph unicode="&#xe61b;" d="M474.057-32h-319.7c-8.243 0-14.915 6.682-14.915 14.914v192.021l-136.22 172.065c-4.584 5.797-4.236 14.079 0.825 19.469l41.592 44.227c5.37 5.737 14.268 6.304 20.343 1.303l113.799-93.704c-1.492 8.133-2.267 16.495-2.267 24.987 0 75.25 61.15 136.509 136.41 136.717 0.089 0 0.189 0 0.269 0s0.189 0 0.269 0c75.26-0.209 136.409-61.468 136.409-136.717 0-8.412-0.755-16.685-2.217-24.738l113.769 93.465c6.115 5.012 15.083 4.395 20.443-1.432l40.438-43.978c4.952-5.379 5.27-13.553 0.765-19.3l-135.117-172.334v-192.051c0.020-8.233-6.662-14.915-14.895-14.915zM296.305-2.171h162.838v183.122c0 4.862 2.337 9.217 5.986 11.942l127.669 162.848-22.322 24.261-150.827-123.911c-10.957-13.224-24.51-24.49-40.19-33.011l-1.591-1.313c-5.439-4.454-13.264-4.504-18.772-0.139-5.498 4.385-7.189 12.031-4.037 18.335l0.557 1.113c1.442 2.863 3.759 5.191 6.622 6.642 0.209 0.109 0.418 0.209 0.616 0.308l35.428 29.113c14.537 18.465 22.789 41.572 22.789 66.132 0 58.893-47.925 106.809-106.849 106.888-58.923-0.079-106.849-47.995-106.849-106.888 0-24.947 8.501-48.383 23.476-67.007l33.538-27.602c0.606-0.318 1.203-0.626 1.82-0.945 6.762-3.411 9.894-11.355 7.269-18.454-2.605-7.119-10.132-11.136-17.5-9.347l-1.77 0.428c-2.188 0.537-4.236 1.551-5.976 2.983l-0.607 0.497c-14.736 8.233-27.553 18.882-38.052 31.331l-151.762 124.935-23.207-24.669 129.141-163.126c3.381-2.645 5.529-6.692 5.529-11.345v-183.122h127.033z" horiz-adv-x="627" />
<glyph unicode="&#xe61c;" d="M21.326 211.373l176.526-173.734 299.118 299.88-72.844 72.844-225.767-228.178-104.317 101.904z" />
<glyph unicode="&#xe61d;" d="M83.027 137.514h51.892v166.054h-51.892v-166.054zM186.811 137.514h51.892v166.054h-51.892v-166.054zM283.675 137.514h51.892v166.054h-51.892v-166.054zM387.459 137.514h48.433v166.054h-48.433v-166.054zM512 303.567h-24.216v-166.054h24.216v-31.135h-24.216v-34.594h-48.433v34.594h-51.892v-34.594h-48.433v34.594h-51.892v-34.594h-48.433v34.594h-51.892v-34.594h-51.892v34.594h-51.892v-34.594h-48.432v34.594h-34.594v31.135h34.594v166.054h-34.594v31.135h34.594v34.595h48.432v-34.595h51.892v34.595h51.892v-34.595h51.892v34.595h48.433v-34.595h51.892v34.595h48.433v-34.595h51.892v34.595h48.433v-34.595h24.216v-31.135z" />
<glyph unicode="&#xe61e;" d="M287.045 469.343c7.413-5.329 10.889-14.132 10.889-25.021v-173.988l215.457-131.591c9.267-3.475 12.742-12.51 12.742-19.461 0-3.475 0-5.329-1.854-9.036-5.56-10.657-18.303-15.986-29.423-10.657l-196.923 65.796v-133.212c0-3.475 0-5.329 0-7.182l68.112-41.007c3.707-1.853 5.56-5.329 5.56-9.036 0-1.853 0-1.853-1.853-3.475-1.853-3.475-7.413-7.182-12.742-3.475l-93.828 31.971c-1.853 0-1.853 0-3.707 0h-1.853l-90.121-33.824c-3.707-1.854-9.267 0-12.742 3.475 0 1.853 0 1.853 0 3.475 0 3.475 1.853 7.182 5.56 9.036l68.112 41.007c0 3.475-1.853 5.329-1.853 9.036v131.591l-195.070-65.796c-10.889-5.329-23.863 0-29.422 10.657-2.085 3.475-2.085 5.329-2.085 8.803 0 9.036 5.56 15.986 12.742 19.461l213.603 131.591v176.072c0 19.461 16.449 35.446 36.836 35.446 9.267 0 18.303-3.475 23.863-10.657z" horiz-adv-x="527" />
<glyph unicode="&#xe61f;" d="M489.276 176.541c-22.925-23.327-56.509-48.666-84.663-61.135l33.785-3.62c-31.774-48.465-84.261-98.74-172.745-105.979v324.977c30.165 7.24 56.308 37.807 56.308 73.603-0.201 41.426-32.176 75.613-74.407 75.613-40.622 0-74.407-32.377-74.407-75.413 0-35.997 24.132-64.553 56.308-73.602v-325.178c-88.484 7.038-141.172 57.514-172.946 105.98l35.394 3.62c-28.154 12.669-61.737 37.807-84.663 61.135 1.81-34.187 1.81-75.413-7.038-105.98l24.735 25.137c31.774-52.085 102.561-127.498 224.226-127.498 121.867 0 190.844 75.413 224.226 127.498l22.925-25.137c-8.849 30.366-10.659 73.603-7.038 105.98zM211.959 404.587c0 21.518 17.697 37.807 37.002 37.807 21.115 0 37.002-17.898 37.002-37.807 0-19.708-15.887-37.807-37.002-37.807s-37.002 17.898-37.002 37.807z" horiz-adv-x="497" />
<glyph unicode="&#xe620;" d="M0 480v-512l383.86 275.627-383.86 236.373z" horiz-adv-x="384" />
<glyph unicode="&#xe621;" d="M367.824 154.139c-0.938 0.235-2.344 0.469-3.751 0.469-1.641 0-3.048-0.235-4.22-0.469-0.938-0.235-1.875-0.704-2.579-0.938-0.938-0.938-1.641-2.344-1.875-4.22-0.235-1.641-0.235-3.517-0.235-5.158v-9.377h17.348v9.377c0 3.517-0.704 6.564-2.11 9.377-0.469 0.235-1.406 0.704-2.579 0.938zM296.088 155.78c-0.938 0-1.875-0.235-2.344-0.469s-1.406-0.469-2.344-0.469c-0.704-0.704-1.406-1.172-1.875-1.406s-1.172-0.704-1.875-1.406v-62.359c0.938-1.406 2.579-2.579 4.688-3.751 0.704 0 1.406-0.235 2.11-0.469s1.641-0.469 2.579-0.469c1.406 0 2.344 0.235 3.048 0.704s1.641 1.172 2.579 1.875c0.235 0.704 0.469 3.048 0.469 6.798v50.872c0 3.751-0.469 6.564-1.641 7.971-0.704 1.641-2.579 2.579-5.392 2.579zM265.143 322.93c-2.344 1.641-4.688 2.579-6.798 2.579-3.517 0-5.861-0.938-6.798-2.579-1.641-0.938-2.579-3.048-2.579-5.861v-59.78c0-2.11 0.703-4.22 2.11-6.329s3.751-3.048 7.267-3.048c2.344 0 4.688 0.938 6.798 3.048 1.641 1.641 2.579 3.751 2.579 6.329v59.78c0 2.813-0.704 4.689-2.579 5.861zM492.074 324.337c-13.363 31.18-31.649 58.139-55.091 81.113s-50.403 41.26-81.582 54.623c-31.18 13.363-64.234 19.927-99.868 19.927-35.399 0-68.689-6.564-99.868-19.927s-58.139-31.649-81.114-54.623c-22.974-22.974-41.26-50.168-54.623-81.113-13.363-31.179-19.927-64.235-19.927-99.868 0-35.399 6.564-68.689 19.927-99.868s31.648-58.373 54.623-81.582c22.974-23.209 50.169-41.729 81.114-55.091 31.179-13.363 64.234-19.926 99.868-19.926 35.399 0 68.688 6.564 99.868 19.926s58.373 31.649 81.582 55.091 41.729 50.403 55.091 81.582c13.363 31.18 19.926 64.235 19.926 99.868 0 35.399-6.564 68.689-19.926 99.868zM187.78 186.022h-23.678v-115.341h-21.568v115.341h-23.677v18.755h68.689v-18.755zM195.048 232.205h-25.084v58.139l-29.304 89.553h24.615l16.879-59.312h0.938l16.176 59.312h25.084l-29.304-86.506v-61.187zM252.718 70.916h-19.927v11.487c-3.751-4.923-7.502-7.971-11.018-9.377-3.751-2.11-7.737-3.048-11.487-3.048-4.923 0-8.44 1.172-10.549 3.751-2.345 3.751-3.751 8.44-3.751 13.597v82.755h19.927v-75.487c0-1.406 0.234-2.579 0.469-3.517s0.469-1.641 0.469-2.344c0.703-0.704 2.345-0.938 4.689-0.938 0.703 0 1.406 0 2.11 0.235s1.875 0.704 3.751 1.875c2.11 1.406 3.751 3.048 5.157 4.688v75.487h19.927v-99.165zM234.901 238.066c-5.626 5.157-8.44 12.425-8.44 21.568v56.498c0 8.44 2.813 15.473 8.44 20.864 3.517 2.345 7.268 4.22 11.018 5.392s8.44 1.875 13.597 1.875c9.377 0 16.879-2.813 22.505-8.44 2.813-2.344 4.923-5.392 6.329-8.909s2.11-7.267 2.11-11.018v-56.498c0-9.846-2.813-16.879-8.44-21.568-5.861-5.861-13.832-8.909-23.678-8.909-9.612 0.234-17.583 3.048-23.443 9.143zM324.454 91.78c0-3.751-0.469-7.033-1.406-9.611s-2.11-4.688-3.517-6.564c-2.813-3.751-7.267-5.861-13.128-5.861-3.517 0-7.033 0.704-10.55 2.11-1.406 0.704-2.813 1.641-4.22 2.579s-2.813 2.344-4.22 3.751v-7.267h-19.926v134.095h19.926v-42.432c1.406 1.406 2.813 2.579 4.22 3.751 1.406 0.938 2.813 1.875 4.22 2.579 1.406 0.938 2.813 1.641 4.454 1.875s3.282 0.235 4.923 0.235c5.627 0 10.315-1.875 14.066-5.861 1.406-2.344 2.579-5.158 3.517-8.205s1.406-6.564 1.406-10.784v-54.389zM324.454 230.095c-5.158 0-9.143 1.875-11.956 5.861-0.938 1.406-2.11 3.282-2.813 5.392-0.938 2.345-1.406 5.157-1.406 8.674v91.663h22.974v-84.396c0-3.047 0.235-4.923 0.469-5.157 1.406-1.406 3.048-2.11 4.688-2.11s3.986 0.938 6.798 2.579c2.344 0.938 4.688 3.048 6.798 5.861v83.224h22.505v-109.48h-22.505v11.956c-2.11-2.345-4.22-4.454-6.564-5.861s-4.688-3.048-7.033-4.689c-1.641-0.703-3.751-1.406-6.095-2.345s-4.22-1.172-5.861-1.172zM393.143 118.036h-37.743v-18.755c0-5.627 0.704-9.143 2.11-10.55 0.938-1.641 3.282-2.579 6.798-2.579 1.406 0 2.579 0.235 3.751 0.469s1.875 0.704 2.579 0.938c0.938 0.938 1.641 2.579 1.875 4.454s0.235 4.22 0.235 7.033v4.688h20.396v-4.688c0-9.846-2.344-17.582-7.267-23.678-4.923-4.923-12.425-7.267-22.505-7.267-8.44 0-15.473 2.813-20.865 8.44-4.923 5.861-7.267 13.363-7.267 22.505v44.542c0 7.971 2.813 14.769 8.44 20.395s12.659 8.44 21.568 8.44c9.143 0 16.176-2.344 20.865-7.267 2.344-2.813 4.22-5.861 5.392-9.143s1.875-7.502 1.875-12.425v-25.553z" />
<glyph unicode="&#xe622;" d="M512 357.61c0-6.12 0-12.239-2.040-18.359s-2.040-12.239-4.079-20.398c-2.040-8.16-4.079-14.279-6.12-16.319-2.040-4.079-4.079-10.199-8.159-20.398s-6.12-16.319-6.12-18.358c-8.159-24.478-18.358-44.877-30.598-63.235-18.358-30.598-44.877-63.235-77.514-95.873s-65.275-59.156-95.873-77.514c-18.358-12.239-40.797-22.438-63.235-30.598-2.040 0-8.16-2.040-18.358-6.12s-16.319-6.12-20.399-8.159c-2.040-4.079-8.16-6.12-16.319-8.159s-14.279-4.079-20.398-4.079-12.239-2.040-18.358-2.040c-22.438 0-44.876 6.12-67.314 18.358-24.478 14.279-38.757 26.518-44.877 38.757-2.040 6.12-6.12 14.279-8.159 24.478s-4.080 18.358-4.080 26.518c0 4.079 0 6.12 2.040 8.159 2.040 4.079 10.199 10.199 28.558 18.358 4.080 2.040 10.199 6.12 20.398 10.199 8.16 4.079 16.319 8.159 22.438 12.239s14.279 8.159 20.398 12.239c0 0 4.079 2.040 8.159 6.12s10.199 6.12 12.239 8.159c4.079 2.040 6.12 2.040 10.199 2.040s10.199-4.079 18.359-10.199 14.279-14.279 20.398-22.438c6.119-8.159 12.239-16.318 18.358-22.438s12.239-10.199 16.319-10.199c2.040 0 4.079 0 8.16 2.040s6.119 2.040 8.16 4.079c2.040 0 4.079 2.040 8.16 4.079s6.119 4.079 6.119 4.079c32.638 18.358 61.195 38.757 85.674 63.235s44.877 53.036 63.235 85.673c0 0 2.040 2.040 4.079 6.119s4.079 6.12 4.079 8.16c0 2.040 2.040 4.079 4.079 8.16s2.040 6.119 2.040 8.159-4.079 10.199-10.199 16.318c-6.12 6.12-14.279 12.239-22.438 18.359s-16.319 12.239-22.438 20.398-10.199 14.279-10.199 20.399c0 4.079 0 6.119 2.040 10.199s4.079 8.159 8.159 12.239 6.12 8.159 6.12 8.159c4.079 6.12 8.159 12.239 12.239 20.399 4.079 6.12 8.159 14.279 12.239 22.438s8.159 14.279 10.199 20.399c8.159 16.319 14.279 26.518 18.358 28.558 2.040 0 4.079 2.040 8.159 2.040 6.12 0 14.279-2.040 26.518-4.079 10.199-2.040 18.358-4.079 24.478-8.16 12.239-4.079 24.478-20.398 38.757-44.876 12.239-22.438 18.359-44.877 18.359-67.315v0z" horiz-adv-x="510" />
</font>
</defs>
</svg>
